<svg xmlns="http://www.w3.org/2000/svg" xmlns:xlink="http://www.w3.org/1999/xlink" xmlns:lucid="lucid" width="1925.96" height="1149.22"><g transform="translate(374.97990860989853 222.6106827771373)" lucid:page-tab-id="0_0"><path d="M-500-500h2500v1500H-500z" fill="#fff"/><path d="M518.6-109.2v79.08a6 6 0 0 0 6 6h148.66a6 6 0 0 1 6 6v61.6" stroke="#979ea8" stroke-width="2" fill="none"/><path d="M519.57-109.18h-1.95v-1.03h1.95z" stroke="#979ea8" stroke-width=".05" fill="#979ea8"/><path d="M679.26 58.73l-4.63-14.26h9.27z" stroke="#979ea8" stroke-width="2" fill="#979ea8"/><path d="M519.6-61.1h640.83a6 6 0 0 1 6 6v84M519.62-61.1h-1.03" stroke="#979ea8" stroke-width="2" fill="none"/><path d="M1166.43 44.16l-4.64-14.27h9.27z" stroke="#979ea8" stroke-width="2" fill="#979ea8"/><path d="M517.6-61.23H242.1a6 6 0 0 0-6 6v98.7M517.57-61.23h1.02" stroke="#979ea8" stroke-width="2" fill="none"/><path d="M236.1 58.73l-4.64-14.26h9.27z" stroke="#979ea8" stroke-width="2" fill="#979ea8"/><path d="M517.6-61.33H-247.5a6 6 0 0 0-6 6v98.8M517.57-61.33h1.02" stroke="#979ea8" stroke-width="2" fill="none"/><path d="M-253.48 58.73l-4.64-14.26h9.28z" stroke="#979ea8" stroke-width="2" fill="#979ea8"/><path d="M34.76-215.1a6 6 0 0 1 6-6h955.67a6 6 0 0 1 6 6v98.9a6 6 0 0 1-6 6H40.76a6 6 0 0 1-6-6z" stroke="#000" stroke-opacity="0" stroke-width="3" fill="#3a414a"/><use xlink:href="#a" transform="matrix(1,0,0,1,46.75793987516977,-209.1106827771373) translate(202.43623046875 57.7875)"/><use xlink:href="#b" transform="matrix(1,0,0,1,46.75793987516977,-209.1106827771373) translate(390.07099609375 57.7875)"/><use xlink:href="#c" transform="matrix(1,0,0,1,46.75793987516977,-209.1106827771373) translate(514.87626953125 57.7875)"/><use xlink:href="#d" transform="matrix(1,0,0,1,46.75793987516977,-209.1106827771373) translate(541.08701171875 57.7875)"/><path d="M-373.48 67.97a6 6 0 0 1 6-6h228a6 6 0 0 1 6 6v87.87a6 6 0 0 1-6 6h-228a6 6 0 0 1-6-6z" stroke="#000" stroke-opacity="0" stroke-width="3" fill="#9391ff"/><use xlink:href="#e" transform="matrix(1,0,0,1,-361.47990860989853,73.97104028252681) translate(17.12265624999999 30.40416666666667)"/><use xlink:href="#f" transform="matrix(1,0,0,1,-361.47990860989853,73.97104028252681) translate(93.29869791666667 30.40416666666667)"/><use xlink:href="#g" transform="matrix(1,0,0,1,-361.47990860989853,73.97104028252681) translate(180.43776041666666 30.40416666666667)"/><use xlink:href="#h" transform="matrix(1,0,0,1,-361.47990860989853,73.97104028252681) translate(25.17539062499999 65.41236979166666)"/><path d="M-253.48 162.84v175.74a6 6 0 0 0 6 6h10.35" stroke="#979ea8" stroke-width="2" fill="none"/><path d="M-252.5 162.87h-1.96v-1.03h1.96z" stroke="#979ea8" stroke-width=".05" fill="#979ea8"/><path d="M-221.87 344.58l-14.26 4.64v-9.27z" stroke="#979ea8" stroke-width="2" fill="#979ea8"/><path d="M116.1 67.97a6 6 0 0 1 6-6h228a6 6 0 0 1 6 6v87.87a6 6 0 0 1-6 6h-228a6 6 0 0 1-6-6z" stroke="#000" stroke-opacity="0" stroke-width="3" fill="#ff80df"/><use xlink:href="#i" transform="matrix(1,0,0,1,128.09538117301304,73.97104028264323) translate(74.77034505208333 30.40416666666667)"/><use xlink:href="#j" transform="matrix(1,0,0,1,128.09538117301304,73.97104028264323) translate(14.629134114583309 65.41236979166666)"/><path d="M559.26 67.97a6 6 0 0 1 6-6h228a6 6 0 0 1 6 6v87.87a6 6 0 0 1-6 6h-228a6 6 0 0 1-6-6z" stroke="#000" stroke-opacity="0" stroke-width="3" fill="#fcce14"/><use xlink:href="#k" transform="matrix(1,0,0,1,571.2623617072229,73.97104028252681) translate(6.1172526041666515 30.40416666666667)"/><use xlink:href="#l" transform="matrix(1,0,0,1,571.2623617072229,73.97104028252681) translate(118.19153645833333 30.40416666666667)"/><use xlink:href="#m" transform="matrix(1,0,0,1,571.2623617072229,73.97104028252681) translate(144.4830078125 30.40416666666667)"/><use xlink:href="#n" transform="matrix(1,0,0,1,571.2623617072229,73.97104028252681) translate(39.507845052083326 65.41236979166666)"/><path d="M1002.43 53.4a6 6 0 0 1 6-6h316a6 6 0 0 1 6 6V166.4a6 6 0 0 1-6 6h-316a6 6 0 0 1-6-6z" stroke="#000" stroke-opacity="0" stroke-width="3" fill="#e08fff"/><use xlink:href="#o" transform="matrix(1,0,0,1,1014.4293422413164,59.39310081606743) translate(30.826009114583314 43.96666666666667)"/><use xlink:href="#p" transform="matrix(1,0,0,1,1014.4293422413164,59.39310081606743) translate(254.73440755208335 43.96666666666667)"/><use xlink:href="#q" transform="matrix(1,0,0,1,1014.4293422413164,59.39310081606743) translate(55.245572916666646 78.97486979166666)"/><use xlink:href="#r" transform="matrix(1,0,0,1,1014.4293422413164,59.39310081606743) translate(127.02792968749999 78.97486979166666)"/><path d="M-212.13 285.45h368.56a6 6 0 0 1 6 6v106.27a6 6 0 0 1-6 6h-368.56a6 6 0 0 1-6-6V291.45a6 6 0 0 1 6-6" stroke="#635dff" fill="#635dff"/><path d="M-205.13 285.45h361.56a6 6 0 0 1 6 6v106.27a6 6 0 0 1-6 6h-361.56a6 6 0 0 1-6-6V291.45a6 6 0 0 1 6-6" stroke="#635dff" fill="#efefff"/><use xlink:href="#s" transform="matrix(1,0,0,1,-194.63033740818105,300.949312844402) translate(0 23.424375)"/><use xlink:href="#t" transform="matrix(1,0,0,1,-194.63033740818105,300.949312844402) translate(69.93073242187499 23.424375)"/><use xlink:href="#u" transform="matrix(1,0,0,1,-194.63033740818105,300.949312844402) translate(100.10850585937499 23.424375)"/><use xlink:href="#v" transform="matrix(1,0,0,1,-194.63033740818105,300.949312844402) translate(206.33285156249997 23.424375)"/><use xlink:href="#w" transform="matrix(1,0,0,1,-194.63033740818105,300.949312844402) translate(221.44535156249998 23.424375)"/><use xlink:href="#x" transform="matrix(1,0,0,1,-194.63033740818105,300.949312844402) translate(0 52.68123046875)"/><use xlink:href="#y" transform="matrix(1,0,0,1,-194.63033740818105,300.949312844402) translate(72.823359375 52.68123046875)"/><path d="M236.1 162.84v161.12a6 6 0 0 0 6 6h4.3" stroke="#979ea8" stroke-width="2" fill="none"/><path d="M237.07 162.87h-1.95v-1.03h1.95z" stroke="#979ea8" stroke-width=".05" fill="#979ea8"/><path d="M261.66 329.96l-14.27 4.63v-9.28z" stroke="#979ea8" stroke-width="2" fill="#979ea8"/><path d="M271.4 285.45h337a6 6 0 0 1 6 6v77a6 6 0 0 1-6 6h-337a6 6 0 0 1-6-6v-77a6 6 0 0 1 6-6" stroke="#d916a8" fill="#d916a8"/><path d="M278.4 285.45h330a6 6 0 0 1 6 6v77a6 6 0 0 1-6 6h-330a6 6 0 0 1-6-6v-77a6 6 0 0 1 6-6" stroke="#d916a8" fill="#fbe8f6"/><use xlink:href="#z" transform="matrix(1,0,0,1,288.89174144247477,300.94931284441634) translate(0 23.424375)"/><use xlink:href="#A" transform="matrix(1,0,0,1,288.89174144247477,300.94931284441634) translate(68.632001953125 23.424375)"/><use xlink:href="#B" transform="matrix(1,0,0,1,288.89174144247477,300.94931284441634) translate(146.7329296875 23.424375)"/><path d="M271.4 667.8h337a6 6 0 0 1 6 6v77.02a6 6 0 0 1-6 6h-337a6 6 0 0 1-6-6v-77a6 6 0 0 1 6-6" stroke="#d916a8" fill="#d916a8"/><path d="M278.4 667.8h330a6 6 0 0 1 6 6v77.02a6 6 0 0 1-6 6h-330a6 6 0 0 1-6-6v-77a6 6 0 0 1 6-6" stroke="#d916a8" fill="#fbe8f6"/><use xlink:href="#C" transform="matrix(1,0,0,1,288.89174144247477,683.3090988746322) translate(0 23.424375)"/><use xlink:href="#D" transform="matrix(1,0,0,1,288.89174144247477,683.3090988746322) translate(74.38183593749999 23.424375)"/><use xlink:href="#E" transform="matrix(1,0,0,1,288.89174144247477,683.3090988746322) translate(162.40034179687495 23.424375)"/><path d="M271.4 469.26h337a6 6 0 0 1 6 6v77.02a6 6 0 0 1-6 6h-337a6 6 0 0 1-6-6v-77.02a6 6 0 0 1 6-6" stroke="#d916a8" fill="#d916a8"/><path d="M278.4 469.26h330a6 6 0 0 1 6 6v77.02a6 6 0 0 1-6 6h-330a6 6 0 0 1-6-6v-77.02a6 6 0 0 1 6-6" stroke="#d916a8" fill="#fbe8f6"/><use xlink:href="#z" transform="matrix(1,0,0,1,288.89174144247477,484.763315753377) translate(0 23.424375)"/><use xlink:href="#F" transform="matrix(1,0,0,1,288.89174144247477,484.763315753377) translate(68.632001953125 23.424375)"/><use xlink:href="#G" transform="matrix(1,0,0,1,288.89174144247477,484.763315753377) translate(191.562744140625 23.424375)"/><path d="M236.1 162.84v344.93a6 6 0 0 0 6 6h4.3" stroke="#979ea8" stroke-width="2" fill="none"/><path d="M237.07 162.87h-1.95v-1.03h1.95z" stroke="#979ea8" stroke-width=".05" fill="#979ea8"/><path d="M261.66 513.77l-14.27 4.63v-9.27z" stroke="#979ea8" stroke-width="2" fill="#979ea8"/><path d="M236.1 162.84v543.48a6 6 0 0 0 6 6h4.3" stroke="#979ea8" stroke-width="2" fill="none"/><path d="M237.07 162.87h-1.95v-1.03h1.95z" stroke="#979ea8" stroke-width=".05" fill="#979ea8"/><path d="M261.66 712.32l-14.27 4.63v-9.27z" stroke="#979ea8" stroke-width="2" fill="#979ea8"/><path d="M676.4 163.35v161.1a6 6 0 0 0 6 6h10.34M676.4 163.37v-1.02" stroke="#979ea8" stroke-width="2" fill="none"/><path d="M708 330.46l-14.26 4.64v-9.27z" stroke="#979ea8" stroke-width="2" fill="#979ea8"/><path d="M717.74 285.96h335a6 6 0 0 1 6 6v77a6 6 0 0 1-6 6h-335a6 6 0 0 1-6-6v-77a6 6 0 0 1 6-6" stroke="#fcce14" fill="#fcce14"/><path d="M724.74 285.96h328a6 6 0 0 1 6 6v77a6 6 0 0 1-6 6h-328a6 6 0 0 1-6-6v-77a6 6 0 0 1 6-6" stroke="#fcce14" fill="#fffae8"/><use xlink:href="#H" transform="matrix(1,0,0,1,735.238397139851,301.4568469781524) translate(0 23.424375)"/><use xlink:href="#I" transform="matrix(1,0,0,1,735.238397139851,301.4568469781524) translate(53.8855078125 23.424375)"/><use xlink:href="#J" transform="matrix(1,0,0,1,735.238397139851,301.4568469781524) translate(124.02875976562501 23.424375)"/><path d="M717.74 469.77h335a6 6 0 0 1 6 6v77a6 6 0 0 1-6 6h-335a6 6 0 0 1-6-6v-77a6 6 0 0 1 6-6" stroke="#fcce14" fill="#fcce14"/><path d="M724.74 469.77h328a6 6 0 0 1 6 6v77a6 6 0 0 1-6 6h-328a6 6 0 0 1-6-6v-77a6 6 0 0 1 6-6" stroke="#fcce14" fill="#fffae8"/><use xlink:href="#K" transform="matrix(1,0,0,1,735.238397139851,485.2708498871515) translate(0 23.424375)"/><use xlink:href="#L" transform="matrix(1,0,0,1,735.238397139851,485.2708498871515) translate(61.217431640625 23.424375)"/><use xlink:href="#M" transform="matrix(1,0,0,1,735.238397139851,485.2708498871515) translate(154.87951171875 23.424375)"/><path d="M676.4 163.35v344.93a6 6 0 0 0 6 6h10.34M676.4 163.37v-1.02" stroke="#979ea8" stroke-width="2" fill="none"/><path d="M708 514.28l-14.26 4.63v-9.26z" stroke="#979ea8" stroke-width="2" fill="#979ea8"/><path d="M1166.43 173.42v33a6 6 0 0 1-6 6h-42.12a6 6 0 0 0-6 6v111.5a6 6 0 0 0 6 6h15.5" stroke="#979ea8" stroke-width="2" fill="none"/><path d="M1167.4 173.44h-1.95v-1.02h1.95z" stroke="#979ea8" stroke-width=".05" fill="#979ea8"/><path d="M1149.08 335.92l-14.27 4.63v-9.27z" stroke="#979ea8" stroke-width="2" fill="#979ea8"/><path d="M1158.8 285.45h385.68a6 6 0 0 1 6 6v88.94a6 6 0 0 1-6 6H1158.8a6 6 0 0 1-6-6v-88.95a6 6 0 0 1 6-6" stroke="#ba23f6" fill="#ba23f6"/><path d="M1165.8 285.45h378.68a6 6 0 0 1 6 6v88.94a6 6 0 0 1-6 6H1165.8a6 6 0 0 1-6-6v-88.95a6 6 0 0 1 6-6" stroke="#ba23f6" fill="#f8e9fe"/><g><use xlink:href="#N" transform="matrix(1,0,0,1,1176.313241943232,300.9493128442999) translate(0 23.424375)"/><use xlink:href="#O" transform="matrix(1,0,0,1,1176.313241943232,300.9493128442999) translate(59.989541015625 23.424375)"/><use xlink:href="#P" transform="matrix(1,0,0,1,1176.313241943232,300.9493128442999) translate(116.17734375 23.424375)"/></g><path d="M1158.8 469.26h385.68a6 6 0 0 1 6 6v106.27a6 6 0 0 1-6 6H1158.8a6 6 0 0 1-6-6V475.26a6 6 0 0 1 6-6" stroke="#ba23f6" fill="#ba23f6"/><path d="M1165.8 469.26h378.68a6 6 0 0 1 6 6v106.27a6 6 0 0 1-6 6H1165.8a6 6 0 0 1-6-6V475.26a6 6 0 0 1 6-6" stroke="#ba23f6" fill="#f8e9fe"/><g><use xlink:href="#Q" transform="matrix(1,0,0,1,1176.313241943232,484.763315753299) translate(0 23.424375)"/><use xlink:href="#R" transform="matrix(1,0,0,1,1176.313241943232,484.763315753299) translate(30.567392578125002 23.424375)"/><use xlink:href="#S" transform="matrix(1,0,0,1,1176.313241943232,484.763315753299) translate(90.55693359375 23.424375)"/><use xlink:href="#T" transform="matrix(1,0,0,1,1176.313241943232,484.763315753299) translate(163.321259765625 23.424375)"/><use xlink:href="#U" transform="matrix(1,0,0,1,1176.313241943232,484.763315753299) translate(264.409716796875 23.424375)"/><use xlink:href="#V" transform="matrix(1,0,0,1,1176.313241943232,484.763315753299) translate(0 52.68123046875)"/></g><path d="M1166.43 173.42v33a6 6 0 0 1-6 6h-42.12a6 6 0 0 0-6 6V522.4a6 6 0 0 0 6 6h15.5" stroke="#979ea8" stroke-width="2" fill="none"/><path d="M1167.4 173.44h-1.95v-1.02h1.95z" stroke="#979ea8" stroke-width=".05" fill="#979ea8"/><path d="M1149.08 528.4l-14.27 4.63v-9.27z" stroke="#979ea8" stroke-width="2" fill="#979ea8"/><path d="M-212.13 454.63h368.56a6 6 0 0 1 6 6v84.27a6 6 0 0 1-6 6h-368.56a6 6 0 0 1-6-6v-84.26a6 6 0 0 1 6-6" stroke="#635dff" fill="#635dff"/><path d="M-205.13 454.63h361.56a6 6 0 0 1 6 6v84.27a6 6 0 0 1-6 6h-361.56a6 6 0 0 1-6-6v-84.26a6 6 0 0 1 6-6" stroke="#635dff" fill="#efefff"/><g><use xlink:href="#W" transform="matrix(1,0,0,1,-194.63033740818105,470.134888018924) translate(0 23.424375)"/><use xlink:href="#X" transform="matrix(1,0,0,1,-194.63033740818105,470.134888018924) translate(58.714423828125 23.424375)"/><use xlink:href="#Y" transform="matrix(1,0,0,1,-194.63033740818105,470.134888018924) translate(181.23193359375 23.424375)"/></g><path d="M-212.13 629.83h368.56a6 6 0 0 1 6 6v77a6 6 0 0 1-6 6h-368.56a6 6 0 0 1-6-6v-77a6 6 0 0 1 6-6" stroke="#635dff" fill="#635dff"/><path d="M-205.13 629.83h361.56a6 6 0 0 1 6 6v77a6 6 0 0 1-6 6h-361.56a6 6 0 0 1-6-6v-77a6 6 0 0 1 6-6" stroke="#635dff" fill="#efefff"/><g><use xlink:href="#Z" transform="matrix(1,0,0,1,-194.63033740818105,645.3321536689974) translate(0 23.424375)"/><use xlink:href="#aa" transform="matrix(1,0,0,1,-194.63033740818105,645.3321536689974) translate(75.14926757812499 23.424375)"/><use xlink:href="#ab" transform="matrix(1,0,0,1,-194.63033740818105,645.3321536689974) translate(164.63179687499996 23.424375)"/></g><path d="M-253.48 162.84v333.93a6 6 0 0 0 6 6h10.35" stroke="#979ea8" stroke-width="2" fill="none"/><path d="M-252.5 162.87h-1.96v-1.03h1.96z" stroke="#979ea8" stroke-width=".05" fill="#979ea8"/><path d="M-221.87 502.77l-14.26 4.63v-9.27z" stroke="#979ea8" stroke-width="2" fill="#979ea8"/><path d="M-253.48 162.84v505.5a6 6 0 0 0 6 6h10.35" stroke="#979ea8" stroke-width="2" fill="none"/><path d="M-252.5 162.87h-1.96v-1.03h1.96z" stroke="#979ea8" stroke-width=".05" fill="#979ea8"/><path d="M-221.87 674.34l-14.26 4.63v-9.27z" stroke="#979ea8" stroke-width="2" fill="#979ea8"/><path d="M271.4 837.1h337a6 6 0 0 1 6 6v77a6 6 0 0 1-6 6h-337a6 6 0 0 1-6-6v-77a6 6 0 0 1 6-6" stroke="#d916a8" fill="#d916a8"/><path d="M278.4 837.1h330a6 6 0 0 1 6 6v77a6 6 0 0 1-6 6h-330a6 6 0 0 1-6-6v-77a6 6 0 0 1 6-6" stroke="#d916a8" fill="#fbe8f6"/><g><use xlink:href="#C" transform="matrix(1,0,0,1,288.89174144247477,852.5980265271374) translate(0 23.424375)"/><use xlink:href="#ac" transform="matrix(1,0,0,1,288.89174144247477,852.5980265271374) translate(74.38183593749999 23.424375)"/><use xlink:href="#ad" transform="matrix(1,0,0,1,288.89174144247477,852.5980265271374) translate(181.22012695312497 23.424375)"/></g><path d="M236.1 162.84V875.6a6 6 0 0 0 6 6h4.3" stroke="#979ea8" stroke-width="2" fill="none"/><path d="M237.07 162.87h-1.95v-1.03h1.95z" stroke="#979ea8" stroke-width=".05" fill="#979ea8"/><path d="M261.66 881.6l-14.27 4.64v-9.27z" stroke="#979ea8" stroke-width="2" fill="#979ea8"/><defs><path fill="#fff" d="M659 0H135v-1490h529c448 0 721 280 721 744 0 466-273 746-726 746zM440-263h204c287 0 437-148 437-483 0-333-150-481-435-481H440v964" id="ae"/><path fill="#fff" d="M513 14c-232 0-385-159-385-421v-711h300v659c0 139 76 222 202 222 127 0 217-86 217-234v-647h301V0H864l-4-232C797-74 683 14 513 14" id="af"/><path fill="#fff" d="M128 0v-1118h278l12 217c60-163 185-234 319-234 143 0 236 81 288 251 63-172 205-251 359-251 205 0 357 138 357 381V0h-301v-697c0-126-76-187-177-187-114 0-184 79-184 196V0H789v-705c0-109-72-179-174-179-106 0-187 74-187 208V0H128" id="ag"/><path fill="#fff" d="M128 418v-1536h295v188h14c41-89 129-202 319-202 248 0 453 193 453 575 0 372-197 576-455 576-183 0-275-108-317-198h-9v597H128zm534-640c156 0 240-139 240-336 0-196-83-334-240-334-154 0-241 131-241 334 0 202 88 336 241 336" id="ah"/><path fill="#fff" d="M572 22C302 22 117-98 78-306l279-48c29 105 101 156 224 156 114 0 185-48 185-115 0-118-228-130-337-155-215-49-322-150-322-317 0-215 187-347 470-347 265 0 424 116 466 298l-266 47c-24-76-87-130-196-130-98 0-174 46-174 113 0 56 38 95 144 117l201 40c216 44 320 143 320 302 0 220-207 367-500 367" id="ai"/><path fill="#fff" d="M683-1118v229H474v562c0 71 29 104 102 104 23 0 73-7 95-13l43 225C647 9 580 16 520 16 296 16 174-96 174-301v-588H20v-229h154v-266h300v266h209" id="aj"/><path fill="#fff" d="M633 22C291 22 81-200 81-553c0-345 210-579 537-579 292 0 525 185 525 567v84H378c7 183 109 277 260 277 105 0 184-46 216-132l272 51C1071-99 893 22 633 22zM380-669h474c-15-146-94-237-233-237-143 0-229 99-241 237" id="ak"/><path fill="#fff" d="M128 0v-1118h290v195h12c54-169 184-238 367-200v268c-27-8-86-15-130-15-138 0-239 95-239 234V0H128" id="al"/><g id="a"><use transform="matrix(0.0181640625,0,0,0.0181640625,0,0)" xlink:href="#ae"/><use transform="matrix(0.0181640625,0,0,0.0181640625,26.8646484375,0)" xlink:href="#af"/><use transform="matrix(0.0181640625,0,0,0.0181640625,50.023828125,0)" xlink:href="#ag"/><use transform="matrix(0.0181640625,0,0,0.0181640625,83.9724609375,0)" xlink:href="#ah"/><use transform="matrix(0.0181640625,0,0,0.0181640625,107.42226562500001,0)" xlink:href="#ai"/><use transform="matrix(0.0181640625,0,0,0.0181640625,128.2564453125,0)" xlink:href="#aj"/><use transform="matrix(0.0181640625,0,0,0.0181640625,141.5162109375,0)" xlink:href="#ak"/><use transform="matrix(0.0181640625,0,0,0.0181640625,163.6763671875,0)" xlink:href="#al"/></g><path fill="#fff" d="M128 0v-1118h300V0H128zm150-1264c-91 0-165-68-165-154 0-85 74-154 165-154 90 0 165 69 165 154 0 86-75 154-165 154" id="am"/><path fill="#fff" d="M443 0L31-1118h319c90 293 199 572 268 885 66-313 175-593 264-885h315L784 0H443" id="an"/><path fill="#fff" d="M428-647V0H128v-1118h283l4 231c63-156 176-245 348-245 232 0 384 159 384 421V0H847v-659c0-139-76-222-202-222-128 0-217 86-217 234" id="ao"/><path fill="#fff" d="M625 442c-280 0-454-114-503-274l258-72c28 63 97 128 243 128 153 0 246-69 246-216v-206h-23C805-108 717-16 536-16 284-16 81-191 81-561c0-378 208-571 456-571 188 0 280 113 321 202h13v-188h295V-9c0 303-226 451-541 451zm5-686c153 0 240-119 240-319 0-198-86-329-240-329-158 0-241 137-241 329 0 195 85 319 241 319" id="ap"/><g id="b"><use transform="matrix(0.0181640625,0,0,0.0181640625,0,0)" xlink:href="#ae"/><use transform="matrix(0.0181640625,0,0,0.0181640625,26.8646484375,0)" xlink:href="#am"/><use transform="matrix(0.0181640625,0,0,0.0181640625,36.945703125,0)" xlink:href="#an"/><use transform="matrix(0.0181640625,0,0,0.0181640625,59.251171875000004,0)" xlink:href="#am"/><use transform="matrix(0.0181640625,0,0,0.0181640625,69.33222656250001,0)" xlink:href="#ao"/><use transform="matrix(0.0181640625,0,0,0.0181640625,92.49140625000001,0)" xlink:href="#ap"/></g><path fill="#fff" d="M818-733v240H140v-240h678" id="aq"/><use transform="matrix(0.0181640625,0,0,0.0181640625,0,0)" xlink:href="#aq" id="c"/><path fill="#fff" d="M135 0v-1490h997v253H440v360h640v249H440v375h694V0H135" id="ar"/><path fill="#fff" d="M135 0v-1490h305v1237h643V0H135" id="as"/><path fill="#fff" d="M440 22C227 22 68-92 68-313c0-250 202-322 422-343 195-21 271-24 271-105 0-95-63-149-175-149-116 0-187 57-211 129l-275-46c57-194 237-305 487-305 240 0 474 108 474 379V0H777v-155h-10C713-51 605 22 440 22zm85-211c140 0 238-93 238-211v-121c-37 26-156 42-222 51-111 16-185 59-185 149 0 87 70 132 169 132" id="at"/><g id="d"><use transform="matrix(0.0181640625,0,0,0.0181640625,0,0)" xlink:href="#ar"/><use transform="matrix(0.0181640625,0,0,0.0181640625,22.59609375,0)" xlink:href="#aq"/><use transform="matrix(0.0181640625,0,0,0.0181640625,39.997265625000004,0)" xlink:href="#as"/><use transform="matrix(0.0181640625,0,0,0.0181640625,61.03125000000001,0)" xlink:href="#ak"/><use transform="matrix(0.0181640625,0,0,0.0181640625,83.5546875,0)" xlink:href="#at"/><use transform="matrix(0.0181640625,0,0,0.0181640625,105.1517578125,0)" xlink:href="#al"/><use transform="matrix(0.0181640625,0,0,0.0181640625,120.57304687499999,0)" xlink:href="#ao"/><use transform="matrix(0.0181640625,0,0,0.0181640625,143.7322265625,0)" xlink:href="#am"/><use transform="matrix(0.0181640625,0,0,0.0181640625,153.81328125,0)" xlink:href="#ao"/><use transform="matrix(0.0181640625,0,0,0.0181640625,176.9724609375,0)" xlink:href="#ap"/></g><path d="M75-1237v-253h1217v253H837V0H531v-1237H75" id="au"/><path d="M633 22C291 22 81-200 81-553c0-345 210-579 537-579 292 0 525 185 525 567v84H378c7 183 109 277 260 277 105 0 184-46 216-132l272 51C1071-99 893 22 633 22zM380-669h474c-15-146-94-237-233-237-143 0-229 99-241 237" id="av"/><path d="M628 22C291 22 81-210 81-554c0-346 210-578 547-578 265 0 455 142 497 372l-279 52c-25-116-99-188-215-188-160 0-244 139-244 341 0 200 84 341 244 341 116 0 193-74 217-195l279 51C1085-123 896 22 628 22" id="aw"/><path d="M428-647V0H128v-1490h294v586c65-146 175-228 341-228 232 0 385 159 385 421V0H847v-659c0-139-76-222-202-222-128 0-217 86-217 234" id="ax"/><g id="e"><use transform="matrix(0.014127604166666669,0,0,0.014127604166666669,0,0)" xlink:href="#au"/><use transform="matrix(0.014127604166666669,0,0,0.014127604166666669,17.052018229166666,0)" xlink:href="#av"/><use transform="matrix(0.014127604166666669,0,0,0.014127604166666669,34.287695312500006,0)" xlink:href="#aw"/><use transform="matrix(0.014127604166666669,0,0,0.014127604166666669,51.31145833333334,0)" xlink:href="#ax"/></g><path d="M681 22C323 22 94-145 85-462h297c10 151 131 226 296 226 163 0 271-77 271-190 0-102-95-149-257-189l-164-41c-252-61-403-188-403-405 0-269 236-449 560-449 330 0 546 183 551 445H941c-11-119-106-188-259-188-156 0-244 72-244 172-3 156 226 185 373 221 250 61 445 186 445 436 0 271-213 446-575 446" id="ay"/><path d="M683-1118v229H474v562c0 71 29 104 102 104 23 0 73-7 95-13l43 225C647 9 580 16 520 16 296 16 174-96 174-301v-588H20v-229h154v-266h300v266h209" id="az"/><path d="M440 22C227 22 68-92 68-313c0-250 202-322 422-343 195-21 271-24 271-105 0-95-63-149-175-149-116 0-187 57-211 129l-275-46c57-194 237-305 487-305 240 0 474 108 474 379V0H777v-155h-10C713-51 605 22 440 22zm85-211c140 0 238-93 238-211v-121c-37 26-156 42-222 51-111 16-185 59-185 149 0 87 70 132 169 132" id="aA"/><path d="M128 0v-1490h300v802h17l366-430h347L740-633 1179 0H826L514-456l-86 97V0H128" id="aB"/><g id="f"><use transform="matrix(0.014127604166666669,0,0,0.014127604166666669,0,0)" xlink:href="#ay"/><use transform="matrix(0.014127604166666669,0,0,0.014127604166666669,18.945117187500003,0)" xlink:href="#az"/><use transform="matrix(0.014127604166666669,0,0,0.014127604166666669,29.682096354166678,0)" xlink:href="#aA"/><use transform="matrix(0.014127604166666669,0,0,0.014127604166666669,46.47981770833334,0)" xlink:href="#aw"/><use transform="matrix(0.014127604166666669,0,0,0.014127604166666669,63.50358072916668,0)" xlink:href="#aB"/></g><path d="M579 22C270 22 81-162 81-393c0-177 110-281 274-393-80-101-143-210-143-345 0-213 160-377 403-377 238 0 385 158 385 351 0 138-76 251-198 340l-89 64 251 289c39-73 63-161 63-258h251c0 203-53 358-134 465L1367 0h-316l-91-101C852-17 708 22 579 22zm-69-628c-83 57-139 119-136 201 0 113 86 185 214 185 72 0 145-22 210-63zm56-319c74-50 193-114 190-218 0-69-50-123-139-123s-146 55-146 138c0 67 36 129 95 203" id="aC"/><use transform="matrix(0.014127604166666669,0,0,0.014127604166666669,0,0)" xlink:href="#aC" id="g"/><path d="M135 0v-1490h581c339 0 533 210 533 503 0 295-197 500-540 500H440V0H135zm305-733h220c186 0 274-104 274-254s-88-251-275-251H440v505" id="aD"/><path d="M128 0v-1118h290v195h12c54-169 184-238 367-200v268c-27-8-86-15-130-15-138 0-239 95-239 234V0H128" id="aE"/><path d="M628 22C291 22 81-210 81-554c0-346 210-578 547-578 336 0 547 232 547 578 0 344-211 576-547 576zm0-236c160 0 242-146 242-341 0-197-82-341-242-341S387-753 387-555c0 195 81 341 241 341" id="aF"/><path d="M120 396l69-226c123 42 245 23 254-107l8-60L31-1118h319c87 288 199 559 259 872 72-308 185-583 277-872h315L726 132c-68 181-186 294-410 294-79 0-153-13-196-30" id="aG"/><path d="M128 418v-1536h295v188h14c41-89 129-202 319-202 248 0 453 193 453 575 0 372-197 576-455 576-183 0-275-108-317-198h-9v597H128zm534-640c156 0 240-139 240-336 0-196-83-334-240-334-154 0-241 131-241 334 0 202 88 336 241 336" id="aH"/><path d="M128 0v-1118h300V0H128zm150-1264c-91 0-165-68-165-154 0-85 74-154 165-154 90 0 165 69 165 154 0 86-75 154-165 154" id="aI"/><path d="M428-647V0H128v-1118h283l4 231c63-156 176-245 348-245 232 0 384 159 384 421V0H847v-659c0-139-76-222-202-222-128 0-217 86-217 234" id="aJ"/><path d="M625 442c-280 0-454-114-503-274l258-72c28 63 97 128 243 128 153 0 246-69 246-216v-206h-23C805-108 717-16 536-16 284-16 81-191 81-561c0-378 208-571 456-571 188 0 280 113 321 202h13v-188h295V-9c0 303-226 451-541 451zm5-686c153 0 240-119 240-319 0-198-86-329-240-329-158 0-241 137-241 329 0 195 85 319 241 319" id="aK"/><g id="h"><use transform="matrix(0.014127604166666669,0,0,0.014127604166666669,0,0)" xlink:href="#aD"/><use transform="matrix(0.014127604166666669,0,0,0.014127604166666669,18.74733072916667,0)" xlink:href="#aE"/><use transform="matrix(0.014127604166666669,0,0,0.014127604166666669,29.82337239583334,0)" xlink:href="#aF"/><use transform="matrix(0.014127604166666669,0,0,0.014127604166666669,47.56764322916668,0)" xlink:href="#az"/><use transform="matrix(0.014127604166666669,0,0,0.014127604166666669,57.88079427083334,0)" xlink:href="#aF"/><use transform="matrix(0.014127604166666669,0,0,0.014127604166666669,75.62506510416668,0)" xlink:href="#az"/><use transform="matrix(0.014127604166666669,0,0,0.014127604166666669,86.85651041666668,0)" xlink:href="#aG"/><use transform="matrix(0.014127604166666669,0,0,0.014127604166666669,104.27584635416667,0)" xlink:href="#aH"/><use transform="matrix(0.014127604166666669,0,0,0.014127604166666669,122.51458333333335,0)" xlink:href="#aI"/><use transform="matrix(0.014127604166666669,0,0,0.014127604166666669,130.35540364583335,0)" xlink:href="#aJ"/><use transform="matrix(0.014127604166666669,0,0,0.014127604166666669,148.36809895833335,0)" xlink:href="#aK"/></g><path d="M786 20C389 20 94-260 94-744c0-487 299-766 692-766 339 0 597 194 641 529h-309c-28-162-156-258-326-258-233 0-388 179-388 495 0 323 157 493 387 493 170 0 298-97 328-259h309c-34 277-266 530-642 530" id="aL"/><g id="i"><use transform="matrix(0.014127604166666669,0,0,0.014127604166666669,0,0)" xlink:href="#aL"/><use transform="matrix(0.014127604166666669,0,0,0.014127604166666669,21.403320312500004,0)" xlink:href="#aF"/><use transform="matrix(0.014127604166666669,0,0,0.014127604166666669,39.14759114583334,0)" xlink:href="#aE"/><use transform="matrix(0.014127604166666669,0,0,0.014127604166666669,50.2236328125,0)" xlink:href="#av"/></g><path d="M659 0H135v-1490h529c448 0 721 280 721 744 0 466-273 746-726 746zM440-263h204c287 0 437-148 437-483 0-333-150-481-435-481H440v964" id="aM"/><path d="M443 0L31-1118h319c90 293 199 572 268 885 66-313 175-593 264-885h315L784 0H443" id="aN"/><path d="M428-1490V0H128v-1490h300" id="aO"/><path d="M128 0v-1118h278l12 217c60-163 185-234 319-234 143 0 236 81 288 251 63-172 205-251 359-251 205 0 357 138 357 381V0h-301v-697c0-126-76-187-177-187-114 0-184 79-184 196V0H789v-705c0-109-72-179-174-179-106 0-187 74-187 208V0H128" id="aP"/><g id="j"><use transform="matrix(0.014127604166666669,0,0,0.014127604166666669,0,0)" xlink:href="#aM"/><use transform="matrix(0.014127604166666669,0,0,0.014127604166666669,20.894726562500004,0)" xlink:href="#av"/><use transform="matrix(0.014127604166666669,0,0,0.014127604166666669,37.60768229166668,0)" xlink:href="#aN"/><use transform="matrix(0.014127604166666669,0,0,0.014127604166666669,54.43365885416668,0)" xlink:href="#av"/><use transform="matrix(0.014127604166666669,0,0,0.014127604166666669,71.66933593750002,0)" xlink:href="#aO"/><use transform="matrix(0.014127604166666669,0,0,0.014127604166666669,79.51015625000002,0)" xlink:href="#aF"/><use transform="matrix(0.014127604166666669,0,0,0.014127604166666669,97.25442708333335,0)" xlink:href="#aH"/><use transform="matrix(0.014127604166666669,0,0,0.014127604166666669,115.49316406250003,0)" xlink:href="#aP"/><use transform="matrix(0.014127604166666669,0,0,0.014127604166666669,141.89765625000004,0)" xlink:href="#av"/><use transform="matrix(0.014127604166666669,0,0,0.014127604166666669,159.13333333333338,0)" xlink:href="#aJ"/><use transform="matrix(0.014127604166666669,0,0,0.014127604166666669,177.14602864583338,0)" xlink:href="#az"/></g><path d="M572 22C302 22 117-98 78-306l279-48c29 105 101 156 224 156 114 0 185-48 185-115 0-118-228-130-337-155-215-49-322-150-322-317 0-215 187-347 470-347 265 0 424 116 466 298l-266 47c-24-76-87-130-196-130-98 0-174 46-174 113 0 56 38 95 144 117l201 40c216 44 320 143 320 302 0 220-207 367-500 367" id="aQ"/><g id="k"><use transform="matrix(0.014127604166666669,0,0,0.014127604166666669,0,0)" xlink:href="#au"/><use transform="matrix(0.014127604166666669,0,0,0.014127604166666669,17.052018229166666,0)" xlink:href="#av"/><use transform="matrix(0.014127604166666669,0,0,0.014127604166666669,34.287695312500006,0)" xlink:href="#aQ"/><use transform="matrix(0.014127604166666669,0,0,0.014127604166666669,50.492057291666676,0)" xlink:href="#az"/><use transform="matrix(0.014127604166666669,0,0,0.014127604166666669,61.087760416666676,0)" xlink:href="#aI"/><use transform="matrix(0.014127604166666669,0,0,0.014127604166666669,68.92858072916668,0)" xlink:href="#aJ"/><use transform="matrix(0.014127604166666669,0,0,0.014127604166666669,86.94127604166668,0)" xlink:href="#aK"/></g><use transform="matrix(0.014127604166666669,0,0,0.014127604166666669,0,0)" xlink:href="#aC" id="l"/><path d="M750 21c-371 0-615-218-615-544v-967h305v942c0 174 123 299 310 299s309-125 309-299v-942h306v967c0 326-247 544-615 544" id="aR"/><g id="m"><use transform="matrix(0.014127604166666669,0,0,0.014127604166666669,0,0)" xlink:href="#aR"/><use transform="matrix(0.014127604166666669,0,0,0.014127604166666669,21.177278645833336,0)" xlink:href="#aQ"/><use transform="matrix(0.014127604166666669,0,0,0.014127604166666669,37.381640625,0)" xlink:href="#av"/><use transform="matrix(0.014127604166666669,0,0,0.014127604166666669,54.61731770833334,0)" xlink:href="#aE"/></g><path d="M135 0v-1490h980v253H440v416h609v249H440V0H135" id="aS"/><path d="M537 19C279 19 81-185 81-557c0-382 206-575 454-575 190 0 278 113 318 202h10v-560h300V0H868v-179h-15C812-89 719 19 537 19zm92-241c153 0 240-134 240-336 0-203-86-334-240-334-158 0-240 138-240 334 0 197 84 336 240 336" id="aT"/><path d="M754 19C571 19 479-89 437-179h-14V0H128v-1490h300v560h9c41-89 129-202 319-202 248 0 453 193 453 575 0 372-197 576-455 576zm-92-241c156 0 240-139 240-336 0-196-83-334-240-334-154 0-241 131-241 334 0 202 88 336 241 336" id="aU"/><g id="n"><use transform="matrix(0.014127604166666669,0,0,0.014127604166666669,0,0)" xlink:href="#aS"/><use transform="matrix(0.014127604166666669,0,0,0.014127604166666669,16.1478515625,0)" xlink:href="#av"/><use transform="matrix(0.014127604166666669,0,0,0.014127604166666669,33.38352864583334,0)" xlink:href="#av"/><use transform="matrix(0.014127604166666669,0,0,0.014127604166666669,50.61920572916667,0)" xlink:href="#aT"/><use transform="matrix(0.014127604166666669,0,0,0.014127604166666669,68.85794270833334,0)" xlink:href="#aU"/><use transform="matrix(0.014127604166666669,0,0,0.014127604166666669,87.37923177083334,0)" xlink:href="#aA"/><use transform="matrix(0.014127604166666669,0,0,0.014127604166666669,104.17695312500001,0)" xlink:href="#aw"/><use transform="matrix(0.014127604166666669,0,0,0.014127604166666669,121.20071614583335,0)" xlink:href="#aB"/></g><path d="M513 14c-232 0-385-159-385-421v-711h300v659c0 139 76 222 202 222 127 0 217-86 217-234v-647h301V0H864l-4-232C797-74 683 14 513 14" id="aV"/><g id="o"><use transform="matrix(0.014127604166666669,0,0,0.014127604166666669,0,0)" xlink:href="#aM"/><use transform="matrix(0.014127604166666669,0,0,0.014127604166666669,20.894726562500004,0)" xlink:href="#aF"/><use transform="matrix(0.014127604166666669,0,0,0.014127604166666669,38.63899739583334,0)" xlink:href="#aw"/><use transform="matrix(0.014127604166666669,0,0,0.014127604166666669,55.66276041666668,0)" xlink:href="#aV"/><use transform="matrix(0.014127604166666669,0,0,0.014127604166666669,73.67545572916669,0)" xlink:href="#aP"/><use transform="matrix(0.014127604166666669,0,0,0.014127604166666669,100.0799479166667,0)" xlink:href="#av"/><use transform="matrix(0.014127604166666669,0,0,0.014127604166666669,117.31562500000004,0)" xlink:href="#aJ"/><use transform="matrix(0.014127604166666669,0,0,0.014127604166666669,135.32832031250004,0)" xlink:href="#az"/><use transform="matrix(0.014127604166666669,0,0,0.014127604166666669,146.0652994791667,0)" xlink:href="#aA"/><use transform="matrix(0.014127604166666669,0,0,0.014127604166666669,162.86302083333337,0)" xlink:href="#az"/><use transform="matrix(0.014127604166666669,0,0,0.014127604166666669,173.45872395833337,0)" xlink:href="#aI"/><use transform="matrix(0.014127604166666669,0,0,0.014127604166666669,181.29954427083337,0)" xlink:href="#aF"/><use transform="matrix(0.014127604166666669,0,0,0.014127604166666669,199.0438151041667,0)" xlink:href="#aJ"/></g><use transform="matrix(0.014127604166666669,0,0,0.014127604166666669,0,0)" xlink:href="#aC" id="p"/><path d="M135 0v-1490h305v602h649v-602h306V0h-306v-635H440V0H135" id="aW"/><g id="q"><use transform="matrix(0.014127604166666669,0,0,0.014127604166666669,0,0)" xlink:href="#aW"/><use transform="matrix(0.014127604166666669,0,0,0.014127604166666669,21.615234375000004,0)" xlink:href="#av"/><use transform="matrix(0.014127604166666669,0,0,0.014127604166666669,38.85091145833334,0)" xlink:href="#aO"/><use transform="matrix(0.014127604166666669,0,0,0.014127604166666669,46.69173177083334,0)" xlink:href="#aH"/></g><g id="r"><use transform="matrix(0.014127604166666669,0,0,0.014127604166666669,0,0)" xlink:href="#ay"/><use transform="matrix(0.014127604166666669,0,0,0.014127604166666669,18.945117187500003,0)" xlink:href="#aG"/><use transform="matrix(0.014127604166666669,0,0,0.014127604166666669,36.364453125000004,0)" xlink:href="#aQ"/><use transform="matrix(0.014127604166666669,0,0,0.014127604166666669,52.568815104166674,0)" xlink:href="#az"/><use transform="matrix(0.014127604166666669,0,0,0.014127604166666669,62.88196614583334,0)" xlink:href="#av"/><use transform="matrix(0.014127604166666669,0,0,0.014127604166666669,80.11764322916667,0)" xlink:href="#aP"/><use transform="matrix(0.014127604166666669,0,0,0.014127604166666669,106.52213541666669,0)" xlink:href="#aQ"/></g><path fill="#282c33" d="M135 0v-1490h581c339 0 533 210 533 503 0 295-197 500-540 500H440V0H135zm305-733h220c186 0 274-104 274-254s-88-251-275-251H440v505" id="aX"/><path fill="#282c33" d="M128 0v-1118h290v195h12c54-169 184-238 367-200v268c-27-8-86-15-130-15-138 0-239 95-239 234V0H128" id="aY"/><path fill="#282c33" d="M628 22C291 22 81-210 81-554c0-346 210-578 547-578 336 0 547 232 547 578 0 344-211 576-547 576zm0-236c160 0 242-146 242-341 0-197-82-341-242-341S387-753 387-555c0 195 81 341 241 341" id="aZ"/><path fill="#282c33" d="M750-1118v229H516V0H217v-889H20v-229h197v-86c0-238 156-356 363-356 94 0 178 20 215 31l-54 226c-25-7-61-15-100-15-123-3-131 84-125 200h234" id="ba"/><g id="s"><use transform="matrix(0.011806640625,0,0,0.011806640625,0,0)" xlink:href="#aX"/><use transform="matrix(0.011806640625,0,0,0.011806640625,15.667412109375,0)" xlink:href="#aY"/><use transform="matrix(0.011806640625,0,0,0.011806640625,24.923818359374998,0)" xlink:href="#aZ"/><use transform="matrix(0.011806640625,0,0,0.011806640625,39.752958984375,0)" xlink:href="#aZ"/><use transform="matrix(0.011806640625,0,0,0.011806640625,54.582099609375,0)" xlink:href="#ba"/></g><g id="t"><use transform="matrix(0.011806640625,0,0,0.011806640625,0,0)" xlink:href="#aZ"/><use transform="matrix(0.011806640625,0,0,0.011806640625,14.829140624999999,0)" xlink:href="#ba"/></g><path fill="#282c33" d="M786 20C389 20 94-260 94-744c0-487 299-766 692-766 339 0 597 194 641 529h-309c-28-162-156-258-326-258-233 0-388 179-388 495 0 323 157 493 387 493 170 0 298-97 328-259h309c-34 277-266 530-642 530" id="bb"/><path fill="#282c33" d="M428-647V0H128v-1118h283l4 231c63-156 176-245 348-245 232 0 384 159 384 421V0H847v-659c0-139-76-222-202-222-128 0-217 86-217 234" id="bc"/><path fill="#282c33" d="M628 22C291 22 81-210 81-554c0-346 210-578 547-578 265 0 455 142 497 372l-279 52c-25-116-99-188-215-188-160 0-244 139-244 341 0 200 84 341 244 341 116 0 193-74 217-195l279 51C1085-123 896 22 628 22" id="bd"/><path fill="#282c33" d="M633 22C291 22 81-200 81-553c0-345 210-579 537-579 292 0 525 185 525 567v84H378c7 183 109 277 260 277 105 0 184-46 216-132l272 51C1071-99 893 22 633 22zM380-669h474c-15-146-94-237-233-237-143 0-229 99-241 237" id="be"/><path fill="#282c33" d="M128 418v-1536h295v188h14c41-89 129-202 319-202 248 0 453 193 453 575 0 372-197 576-455 576-183 0-275-108-317-198h-9v597H128zm534-640c156 0 240-139 240-336 0-196-83-334-240-334-154 0-241 131-241 334 0 202 88 336 241 336" id="bf"/><path fill="#282c33" d="M683-1118v229H474v562c0 71 29 104 102 104 23 0 73-7 95-13l43 225C647 9 580 16 520 16 296 16 174-96 174-301v-588H20v-229h154v-266h300v266h209" id="bg"/><g id="u"><use transform="matrix(0.011806640625,0,0,0.011806640625,0,0)" xlink:href="#bb"/><use transform="matrix(0.011806640625,0,0,0.011806640625,17.887060546875,0)" xlink:href="#aZ"/><use transform="matrix(0.011806640625,0,0,0.011806640625,32.716201171875,0)" xlink:href="#bc"/><use transform="matrix(0.011806640625,0,0,0.011806640625,47.76966796875,0)" xlink:href="#bd"/><use transform="matrix(0.011806640625,0,0,0.011806640625,61.996669921875,0)" xlink:href="#be"/><use transform="matrix(0.011806640625,0,0,0.011806640625,76.400771484375,0)" xlink:href="#bf"/><use transform="matrix(0.011806640625,0,0,0.011806640625,91.64314453125,0)" xlink:href="#bg"/></g><path fill="#282c33" d="M768-1560L288 224H28l480-1784h260" id="bh"/><use transform="matrix(0.011806640625,0,0,0.011806640625,0,0)" xlink:href="#bh" id="v"/><path fill="#282c33" d="M75-1237v-253h1217v253H837V0H531v-1237H75" id="bi"/><path fill="#282c33" d="M428-647V0H128v-1490h294v586c65-146 175-228 341-228 232 0 385 159 385 421V0H847v-659c0-139-76-222-202-222-128 0-217 86-217 234" id="bj"/><g id="w"><use transform="matrix(0.011806640625,0,0,0.011806640625,0,0)" xlink:href="#bi"/><use transform="matrix(0.011806640625,0,0,0.011806640625,14.250615234375,0)" xlink:href="#be"/><use transform="matrix(0.011806640625,0,0,0.011806640625,28.654716796875,0)" xlink:href="#bd"/><use transform="matrix(0.011806640625,0,0,0.011806640625,42.881718750000005,0)" xlink:href="#bj"/></g><path fill="#282c33" d="M681 22C323 22 94-145 85-462h297c10 151 131 226 296 226 163 0 271-77 271-190 0-102-95-149-257-189l-164-41c-252-61-403-188-403-405 0-269 236-449 560-449 330 0 546 183 551 445H941c-11-119-106-188-259-188-156 0-244 72-244 172-3 156 226 185 373 221 250 61 445 186 445 436 0 271-213 446-575 446" id="bk"/><path fill="#282c33" d="M440 22C227 22 68-92 68-313c0-250 202-322 422-343 195-21 271-24 271-105 0-95-63-149-175-149-116 0-187 57-211 129l-275-46c57-194 237-305 487-305 240 0 474 108 474 379V0H777v-155h-10C713-51 605 22 440 22zm85-211c140 0 238-93 238-211v-121c-37 26-156 42-222 51-111 16-185 59-185 149 0 87 70 132 169 132" id="bl"/><path fill="#282c33" d="M128 0v-1490h300v802h17l366-430h347L740-633 1179 0H826L514-456l-86 97V0H128" id="bm"/><g id="x"><use transform="matrix(0.011806640625,0,0,0.011806640625,0,0)" xlink:href="#bk"/><use transform="matrix(0.011806640625,0,0,0.011806640625,15.832705078125,0)" xlink:href="#bg"/><use transform="matrix(0.011806640625,0,0,0.011806640625,24.805751953125,0)" xlink:href="#bl"/><use transform="matrix(0.011806640625,0,0,0.011806640625,38.84384765625,0)" xlink:href="#bd"/><use transform="matrix(0.011806640625,0,0,0.011806640625,53.070849609375,0)" xlink:href="#bm"/></g><path fill="#282c33" d="M169-607c0-330 107-732 258-974h279c-145 311-231 674-231 974 0 262 67 512 231 886H427C258-1 169-307 169-607" id="bn"/><path fill="#282c33" d="M449 0L49-1490h333c89 395 194 758 253 1185 65-426 176-790 269-1185h317c93 394 201 758 268 1181 60-425 164-788 253-1181h334L1675 0h-348c-90-376-204-711-266-1118C1004-714 886-373 798 0H449" id="bo"/><path fill="#282c33" d="M818-733v240H140v-240h678" id="bp"/><path fill="#282c33" d="M749-1490V0H444v-1221h-10L93-980v-279l329-231h327" id="bq"/><path fill="#282c33" d="M67 279c166-379 230-627 230-886 0-300-86-663-230-974h278c151 241 258 644 258 974 0 302-90 608-258 886H67" id="br"/><g id="y"><use transform="matrix(0.011806640625,0,0,0.011806640625,0,0)" xlink:href="#bn"/><use transform="matrix(0.011806640625,0,0,0.011806640625,9.1147265625,0)" xlink:href="#bo"/><use transform="matrix(0.011806640625,0,0,0.011806640625,34.203837890624996,0)" xlink:href="#aX"/><use transform="matrix(0.011806640625,0,0,0.011806640625,49.36356445312499,0)" xlink:href="#bp"/><use transform="matrix(0.011806640625,0,0,0.011806640625,60.674326171875,0)" xlink:href="#bq"/><use transform="matrix(0.011806640625,0,0,0.011806640625,71.536435546875,0)" xlink:href="#br"/></g><path fill="#282c33" d="M135 0v-1490h340l471 754c59 97 122 210 187 365-32-387-14-721-19-1119h312V0h-341C855-382 627-689 427-1113c32 420 16 695 20 1113H135" id="bs"/><path fill="#282c33" d="M537 19C279 19 81-185 81-557c0-382 206-575 454-575 190 0 278 113 318 202h10v-560h300V0H868v-179h-15C812-89 719 19 537 19zm92-241c153 0 240-134 240-336 0-203-86-334-240-334-158 0-240 138-240 334 0 197 84 336 240 336" id="bt"/><g id="z"><use transform="matrix(0.011806640625,0,0,0.011806640625,0,0)" xlink:href="#bs"/><use transform="matrix(0.011806640625,0,0,0.011806640625,18.430166015624998,0)" xlink:href="#aZ"/><use transform="matrix(0.011806640625,0,0,0.011806640625,33.259306640625,0)" xlink:href="#bt"/><use transform="matrix(0.011806640625,0,0,0.011806640625,48.5016796875,0)" xlink:href="#be"/></g><path fill="#282c33" d="M120 396l69-226c123 42 245 23 254-107l8-60L31-1118h319c87 288 199 559 259 872 72-308 185-583 277-872h315L726 132c-68 181-186 294-410 294-79 0-153-13-196-30" id="bu"/><path fill="#282c33" d="M572 22C302 22 117-98 78-306l279-48c29 105 101 156 224 156 114 0 185-48 185-115 0-118-228-130-337-155-215-49-322-150-322-317 0-215 187-347 470-347 265 0 424 116 466 298l-266 47c-24-76-87-130-196-130-98 0-174 46-174 113 0 56 38 95 144 117l201 40c216 44 320 143 320 302 0 220-207 367-500 367" id="bv"/><g id="A"><use transform="matrix(0.011806640625,0,0,0.011806640625,0,0)" xlink:href="#bi"/><use transform="matrix(0.011806640625,0,0,0.011806640625,14.628427734374997,0)" xlink:href="#bu"/><use transform="matrix(0.011806640625,0,0,0.011806640625,29.186015624999996,0)" xlink:href="#bf"/><use transform="matrix(0.011806640625,0,0,0.011806640625,44.428388671875,0)" xlink:href="#be"/><use transform="matrix(0.011806640625,0,0,0.011806640625,58.832490234375,0)" xlink:href="#bv"/></g><path fill="#282c33" d="M101-265v-241l623-984h383v979h186v246h-186V0H814v-265H101zm719-246v-643h-12L409-523v12h411" id="bw"/><g id="B"><use transform="matrix(0.011806640625,0,0,0.011806640625,0,0)" xlink:href="#bn"/><use transform="matrix(0.011806640625,0,0,0.011806640625,9.1147265625,0)" xlink:href="#bo"/><use transform="matrix(0.011806640625,0,0,0.011806640625,34.203837890624996,0)" xlink:href="#aX"/><use transform="matrix(0.011806640625,0,0,0.011806640625,49.36356445312499,0)" xlink:href="#bp"/><use transform="matrix(0.011806640625,0,0,0.011806640625,60.674326171875,0)" xlink:href="#bw"/><use transform="matrix(0.011806640625,0,0,0.011806640625,77.0265234375,0)" xlink:href="#br"/></g><path fill="#282c33" d="M795 20C377 20 94-272 94-743c0-483 302-767 694-767 335 0 593 206 635 500h-310c-42-142-154-229-320-229-230 0-389 177-389 493s154 495 393 495c212 0 340-120 345-311H818v-232h620v186c0 391-269 628-643 628" id="bx"/><path fill="#282c33" d="M128 0v-1118h278l12 217c60-163 185-234 319-234 143 0 236 81 288 251 63-172 205-251 359-251 205 0 357 138 357 381V0h-301v-697c0-126-76-187-177-187-114 0-184 79-184 196V0H789v-705c0-109-72-179-174-179-106 0-187 74-187 208V0H128" id="by"/><g id="C"><use transform="matrix(0.011806640625,0,0,0.011806640625,0,0)" xlink:href="#bx"/><use transform="matrix(0.011806640625,0,0,0.011806640625,18.146806640624998,0)" xlink:href="#bl"/><use transform="matrix(0.011806640625,0,0,0.011806640625,32.18490234375,0)" xlink:href="#by"/><use transform="matrix(0.011806640625,0,0,0.011806640625,54.251513671875,0)" xlink:href="#be"/></g><path fill="#282c33" d="M659 0H135v-1490h529c448 0 721 280 721 744 0 466-273 746-726 746zM440-263h204c287 0 437-148 437-483 0-333-150-481-435-481H440v964" id="bz"/><path fill="#282c33" d="M128 0v-1118h300V0H128zm150-1264c-91 0-165-68-165-154 0-85 74-154 165-154 90 0 165 69 165 154 0 86-75 154-165 154" id="bA"/><path fill="#282c33" d="M625 442c-280 0-454-114-503-274l258-72c28 63 97 128 243 128 153 0 246-69 246-216v-206h-23C805-108 717-16 536-16 284-16 81-191 81-561c0-378 208-571 456-571 188 0 280 113 321 202h13v-188h295V-9c0 303-226 451-541 451zm5-686c153 0 240-119 240-319 0-198-86-329-240-329-158 0-241 137-241 329 0 195 85 319 241 319" id="bB"/><g id="D"><use transform="matrix(0.011806640625,0,0,0.011806640625,0,0)" xlink:href="#bz"/><use transform="matrix(0.011806640625,0,0,0.011806640625,17.462021484375,0)" xlink:href="#be"/><use transform="matrix(0.011806640625,0,0,0.011806640625,31.866123046875,0)" xlink:href="#bv"/><use transform="matrix(0.011806640625,0,0,0.011806640625,45.40833984375,0)" xlink:href="#bA"/><use transform="matrix(0.011806640625,0,0,0.011806640625,51.961025390625,0)" xlink:href="#bB"/><use transform="matrix(0.011806640625,0,0,0.011806640625,67.23881835937499,0)" xlink:href="#bc"/></g><path fill="#282c33" d="M664 20c-306 0-529-183-535-438h297c6 117 110 196 238 196 149 0 255-108 255-266 0-159-108-270-261-270-89 0-178 39-224 98l-274-48 72-782h901v252H485l-39 377h8c53-72 165-124 294-124 269 0 467 204 467 490 0 300-224 515-551 515" id="bC"/><g id="E"><use transform="matrix(0.011806640625,0,0,0.011806640625,0,0)" xlink:href="#bn"/><use transform="matrix(0.011806640625,0,0,0.011806640625,9.1147265625,0)" xlink:href="#bo"/><use transform="matrix(0.011806640625,0,0,0.011806640625,34.203837890624996,0)" xlink:href="#aX"/><use transform="matrix(0.011806640625,0,0,0.011806640625,49.36356445312499,0)" xlink:href="#bp"/><use transform="matrix(0.011806640625,0,0,0.011806640625,60.674326171875,0)" xlink:href="#bC"/><use transform="matrix(0.011806640625,0,0,0.011806640625,76.12921874999999,0)" xlink:href="#br"/></g><path fill="#282c33" d="M135 0v-1490h997v253H440v360h640v249H440v375h694V0H135" id="bD"/><path fill="#282c33" d="M42 0l360-574-338-544h324c72 124 151 261 209 394 58-134 140-271 215-394h318L785-570 1146 0H824c-79-136-169-280-234-425C528-278 439-134 360 0H42" id="bE"/><path fill="#282c33" d="M513 14c-232 0-385-159-385-421v-711h300v659c0 139 76 222 202 222 127 0 217-86 217-234v-647h301V0H864l-4-232C797-74 683 14 513 14" id="bF"/><g id="F"><use transform="matrix(0.011806640625,0,0,0.011806640625,0,0)" xlink:href="#bD"/><use transform="matrix(0.011806640625,0,0,0.011806640625,14.6874609375,0)" xlink:href="#bE"/><use transform="matrix(0.011806640625,0,0,0.011806640625,28.229677734375,0)" xlink:href="#be"/><use transform="matrix(0.011806640625,0,0,0.011806640625,42.633779296875,0)" xlink:href="#bd"/><use transform="matrix(0.011806640625,0,0,0.011806640625,56.86078125,0)" xlink:href="#bF"/><use transform="matrix(0.011806640625,0,0,0.011806640625,71.914248046875,0)" xlink:href="#bg"/><use transform="matrix(0.011806640625,0,0,0.011806640625,80.769228515625,0)" xlink:href="#bA"/><use transform="matrix(0.011806640625,0,0,0.011806640625,87.3219140625,0)" xlink:href="#aZ"/><use transform="matrix(0.011806640625,0,0,0.011806640625,102.1510546875,0)" xlink:href="#bc"/></g><path fill="#282c33" d="M177 0l620-1228v-10H75v-252h1041v256L494 0H177" id="bG"/><g id="G"><use transform="matrix(0.011806640625,0,0,0.011806640625,0,0)" xlink:href="#bn"/><use transform="matrix(0.011806640625,0,0,0.011806640625,9.1147265625,0)" xlink:href="#bo"/><use transform="matrix(0.011806640625,0,0,0.011806640625,34.203837890624996,0)" xlink:href="#aX"/><use transform="matrix(0.011806640625,0,0,0.011806640625,49.36356445312499,0)" xlink:href="#bp"/><use transform="matrix(0.011806640625,0,0,0.011806640625,59.98954101562499,0)" xlink:href="#bG"/><use transform="matrix(0.011806640625,0,0,0.011806640625,74.05125,0)" xlink:href="#br"/></g><path fill="#282c33" d="M750 21c-371 0-615-218-615-544v-967h305v942c0 174 123 299 310 299s309-125 309-299v-942h306v967c0 326-247 544-615 544" id="bH"/><g id="H"><use transform="matrix(0.011806640625,0,0,0.011806640625,0,0)" xlink:href="#bH"/><use transform="matrix(0.011806640625,0,0,0.011806640625,17.698154296875,0)" xlink:href="#bc"/><use transform="matrix(0.011806640625,0,0,0.011806640625,32.75162109375,0)" xlink:href="#bA"/><use transform="matrix(0.011806640625,0,0,0.011806640625,39.304306640625,0)" xlink:href="#bg"/></g><g id="I"><use transform="matrix(0.011806640625,0,0,0.011806640625,0,0)" xlink:href="#bi"/><use transform="matrix(0.011806640625,0,0,0.011806640625,14.250615234375,0)" xlink:href="#be"/><use transform="matrix(0.011806640625,0,0,0.011806640625,28.654716796875,0)" xlink:href="#bv"/><use transform="matrix(0.011806640625,0,0,0.011806640625,42.19693359375,0)" xlink:href="#bg"/><use transform="matrix(0.011806640625,0,0,0.011806640625,50.87481445312501,0)" xlink:href="#bv"/></g><path fill="#282c33" d="M666 20C332 20 94-158 94-400c0-186 139-340 321-370v-9c-159-33-267-168-267-331 0-230 219-400 518-400 298 0 519 171 519 400 0 163-111 298-266 331v9c177 30 321 184 321 370 0 242-241 420-574 420zm0-226c153 0 255-89 255-218 0-131-108-226-255-226-148 0-255 94-255 226 0 128 101 218 255 218zm0-668c127 0 220-84 220-203s-90-200-220-200-220 80-220 200c0 119 92 203 220 203" id="bI"/><g id="J"><use transform="matrix(0.011806640625,0,0,0.011806640625,0,0)" xlink:href="#bn"/><use transform="matrix(0.011806640625,0,0,0.011806640625,9.1147265625,0)" xlink:href="#bo"/><use transform="matrix(0.011806640625,0,0,0.011806640625,34.203837890624996,0)" xlink:href="#aX"/><use transform="matrix(0.011806640625,0,0,0.011806640625,49.36356445312499,0)" xlink:href="#bp"/><use transform="matrix(0.011806640625,0,0,0.011806640625,60.674326171875,0)" xlink:href="#bI"/><use transform="matrix(0.011806640625,0,0,0.011806640625,76.412578125,0)" xlink:href="#br"/></g><g id="K"><use transform="matrix(0.011806640625,0,0,0.011806640625,0,0)" xlink:href="#bH"/><use transform="matrix(0.011806640625,0,0,0.011806640625,17.698154296875,0)" xlink:href="#bv"/><use transform="matrix(0.011806640625,0,0,0.011806640625,31.24037109375,0)" xlink:href="#be"/><use transform="matrix(0.011806640625,0,0,0.011806640625,45.64447265625,0)" xlink:href="#aY"/></g><g id="L"><use transform="matrix(0.011806640625,0,0,0.011806640625,0,0)" xlink:href="#bi"/><use transform="matrix(0.011806640625,0,0,0.011806640625,14.250615234375,0)" xlink:href="#be"/><use transform="matrix(0.011806640625,0,0,0.011806640625,28.654716796875,0)" xlink:href="#bv"/><use transform="matrix(0.011806640625,0,0,0.011806640625,42.19693359375,0)" xlink:href="#bg"/><use transform="matrix(0.011806640625,0,0,0.011806640625,51.051914062499996,0)" xlink:href="#bA"/><use transform="matrix(0.011806640625,0,0,0.011806640625,57.604599609375,0)" xlink:href="#bc"/><use transform="matrix(0.011806640625,0,0,0.011806640625,72.65806640625,0)" xlink:href="#bB"/></g><path fill="#282c33" d="M636 22c-294 0-497-190-527-437h302c24 106 107 174 225 174 196 0 302-184 302-479h-10c-68 129-211 209-374 209-265 0-460-202-460-482 0-301 224-521 555-519 300 2 588 186 588 731 0 502-235 803-601 803zm11-757c147 0 260-121 260-268 0-144-109-265-258-265-147 0-258 117-258 267 0 151 108 266 256 266" id="bJ"/><g id="M"><use transform="matrix(0.011806640625,0,0,0.011806640625,0,0)" xlink:href="#bn"/><use transform="matrix(0.011806640625,0,0,0.011806640625,9.1147265625,0)" xlink:href="#bo"/><use transform="matrix(0.011806640625,0,0,0.011806640625,34.203837890624996,0)" xlink:href="#aX"/><use transform="matrix(0.011806640625,0,0,0.011806640625,49.36356445312499,0)" xlink:href="#bp"/><use transform="matrix(0.011806640625,0,0,0.011806640625,60.674326171875,0)" xlink:href="#bJ"/><use transform="matrix(0.011806640625,0,0,0.011806640625,76.37715820312499,0)" xlink:href="#br"/></g><path fill="#282c33" d="M135 0v-1490h305v602h649v-602h306V0h-306v-635H440V0H135" id="bK"/><path fill="#282c33" d="M428-1490V0H128v-1490h300" id="bL"/><g id="N"><use transform="matrix(0.011806640625,0,0,0.011806640625,0,0)" xlink:href="#bK"/><use transform="matrix(0.011806640625,0,0,0.011806640625,18.06416015625,0)" xlink:href="#be"/><use transform="matrix(0.011806640625,0,0,0.011806640625,32.46826171875,0)" xlink:href="#bL"/><use transform="matrix(0.011806640625,0,0,0.011806640625,39.020947265625,0)" xlink:href="#bf"/></g><g id="O"><use transform="matrix(0.011806640625,0,0,0.011806640625,0,0)" xlink:href="#bi"/><use transform="matrix(0.011806640625,0,0,0.011806640625,14.250615234375,0)" xlink:href="#aZ"/><use transform="matrix(0.011806640625,0,0,0.011806640625,29.079755859375,0)" xlink:href="#aZ"/><use transform="matrix(0.011806640625,0,0,0.011806640625,43.908896484375,0)" xlink:href="#bL"/></g><path fill="#282c33" d="M690 20C314 20 94-261 94-744c0-482 221-766 596-766 376 0 597 284 597 766 0 483-219 764-597 764zm0-253c184 0 286-184 286-511 0-328-102-514-286-514-183 0-285 187-285 514s101 511 285 511" id="bM"/><g id="P"><use transform="matrix(0.011806640625,0,0,0.011806640625,0,0)" xlink:href="#bn"/><use transform="matrix(0.011806640625,0,0,0.011806640625,9.1147265625,0)" xlink:href="#bo"/><use transform="matrix(0.011806640625,0,0,0.011806640625,34.203837890624996,0)" xlink:href="#aX"/><use transform="matrix(0.011806640625,0,0,0.011806640625,49.36356445312499,0)" xlink:href="#bp"/><use transform="matrix(0.011806640625,0,0,0.011806640625,60.674326171875,0)" xlink:href="#bq"/><use transform="matrix(0.011806640625,0,0,0.011806640625,71.09958984375,0)" xlink:href="#bM"/><use transform="matrix(0.011806640625,0,0,0.011806640625,87.40456054687499,0)" xlink:href="#br"/></g><path fill="#282c33" d="M49 0l509-1490h400L1480 0h-339l-115-346H497L386 0H49zm524-585h374c-75-213-124-402-192-666-66 268-110 453-182 666" id="bN"/><path fill="#282c33" d="M440-1490V0H135v-1490h305" id="bO"/><g id="Q"><use transform="matrix(0.011806640625,0,0,0.011806640625,0,0)" xlink:href="#bN"/><use transform="matrix(0.011806640625,0,0,0.011806640625,18.052353515625,0)" xlink:href="#bO"/></g><g id="R"><use transform="matrix(0.011806640625,0,0,0.011806640625,0,0)" xlink:href="#bK"/><use transform="matrix(0.011806640625,0,0,0.011806640625,18.06416015625,0)" xlink:href="#be"/><use transform="matrix(0.011806640625,0,0,0.011806640625,32.46826171875,0)" xlink:href="#bL"/><use transform="matrix(0.011806640625,0,0,0.011806640625,39.020947265625,0)" xlink:href="#bf"/></g><path fill="#282c33" d="M135 0v-1490h468l242 684c30 94 76 293 111 455 34-161 80-360 110-455l238-684h470V0h-307c0-447-3-765 11-1227-122 503-246 788-395 1227H826C676-435 552-717 427-1215c15 453 11 775 11 1215H135" id="bP"/><g id="S"><use transform="matrix(0.011806640625,0,0,0.011806640625,0,0)" xlink:href="#bP"/><use transform="matrix(0.011806640625,0,0,0.011806640625,22.5270703125,0)" xlink:href="#be"/><use transform="matrix(0.011806640625,0,0,0.011806640625,36.931171875000004,0)" xlink:href="#bc"/><use transform="matrix(0.011806640625,0,0,0.011806640625,51.984638671875,0)" xlink:href="#bF"/></g><g id="T"><use transform="matrix(0.011806640625,0,0,0.011806640625,0,0)" xlink:href="#bn"/><use transform="matrix(0.011806640625,0,0,0.011806640625,9.1147265625,0)" xlink:href="#bk"/><use transform="matrix(0.011806640625,0,0,0.011806640625,24.947431640625,0)" xlink:href="#bg"/><use transform="matrix(0.011806640625,0,0,0.011806640625,33.802412109375,0)" xlink:href="#aY"/><use transform="matrix(0.011806640625,0,0,0.011806640625,43.058818359374996,0)" xlink:href="#be"/><use transform="matrix(0.011806640625,0,0,0.011806640625,57.462919921875,0)" xlink:href="#bg"/><use transform="matrix(0.011806640625,0,0,0.011806640625,66.081767578125,0)" xlink:href="#bd"/><use transform="matrix(0.011806640625,0,0,0.011806640625,80.30876953125,0)" xlink:href="#bj"/></g><g id="U"><use transform="matrix(0.011806640625,0,0,0.011806640625,0,0)" xlink:href="#bx"/><use transform="matrix(0.011806640625,0,0,0.011806640625,18.146806640624998,0)" xlink:href="#aZ"/><use transform="matrix(0.011806640625,0,0,0.011806640625,33.212080078125,0)" xlink:href="#bl"/><use transform="matrix(0.011806640625,0,0,0.011806640625,47.25017578125,0)" xlink:href="#bL"/><use transform="matrix(0.011806640625,0,0,0.011806640625,54.23970703125,0)" xlink:href="#br"/></g><g id="V"><use transform="matrix(0.011806640625,0,0,0.011806640625,0,0)" xlink:href="#bn"/><use transform="matrix(0.011806640625,0,0,0.011806640625,9.1147265625,0)" xlink:href="#bo"/><use transform="matrix(0.011806640625,0,0,0.011806640625,34.203837890624996,0)" xlink:href="#aX"/><use transform="matrix(0.011806640625,0,0,0.011806640625,49.36356445312499,0)" xlink:href="#bp"/><use transform="matrix(0.011806640625,0,0,0.011806640625,60.674326171875,0)" xlink:href="#bq"/><use transform="matrix(0.011806640625,0,0,0.011806640625,71.09958984375,0)" xlink:href="#bq"/><use transform="matrix(0.011806640625,0,0,0.011806640625,81.96169921875,0)" xlink:href="#br"/></g><path fill="#282c33" d="M135 0v-1490h980v253H440v416h609v249H440V0H135" id="bQ"/><g id="W"><use transform="matrix(0.011806640625,0,0,0.011806640625,0,0)" xlink:href="#bQ"/><use transform="matrix(0.011806640625,0,0,0.011806640625,14.19158203125,0)" xlink:href="#bA"/><use transform="matrix(0.011806640625,0,0,0.011806640625,20.744267578125,0)" xlink:href="#aY"/><use transform="matrix(0.011806640625,0,0,0.011806640625,30.591005859375,0)" xlink:href="#bv"/><use transform="matrix(0.011806640625,0,0,0.011806640625,44.13322265625,0)" xlink:href="#bg"/></g><g id="X"><use transform="matrix(0.011806640625,0,0,0.011806640625,0,0)" xlink:href="#aX"/><use transform="matrix(0.011806640625,0,0,0.011806640625,15.667412109375,0)" xlink:href="#aY"/><use transform="matrix(0.011806640625,0,0,0.011806640625,24.923818359374998,0)" xlink:href="#aZ"/><use transform="matrix(0.011806640625,0,0,0.011806640625,39.752958984375,0)" xlink:href="#bg"/><use transform="matrix(0.011806640625,0,0,0.011806640625,48.371806640624996,0)" xlink:href="#aZ"/><use transform="matrix(0.011806640625,0,0,0.011806640625,63.200947265625,0)" xlink:href="#bg"/><use transform="matrix(0.011806640625,0,0,0.011806640625,72.5872265625,0)" xlink:href="#bu"/><use transform="matrix(0.011806640625,0,0,0.011806640625,87.14481445312501,0)" xlink:href="#bf"/><use transform="matrix(0.011806640625,0,0,0.011806640625,102.38718750000002,0)" xlink:href="#be"/></g><path fill="#282c33" d="M124 0v-220l528-495c135-132 210-216 210-336 0-133-98-215-231-215-139 0-229 88-229 233H110c0-290 214-477 523-477 315 0 525 182 525 440 0 167-80 305-385 586L548-262v11h630V0H124" id="bR"/><g id="Y"><use transform="matrix(0.011806640625,0,0,0.011806640625,0,0)" xlink:href="#bn"/><use transform="matrix(0.011806640625,0,0,0.011806640625,9.1147265625,0)" xlink:href="#bo"/><use transform="matrix(0.011806640625,0,0,0.011806640625,34.203837890624996,0)" xlink:href="#aX"/><use transform="matrix(0.011806640625,0,0,0.011806640625,49.36356445312499,0)" xlink:href="#bp"/><use transform="matrix(0.011806640625,0,0,0.011806640625,60.154833984375,0)" xlink:href="#bR"/><use transform="matrix(0.011806640625,0,0,0.011806640625,75.385400390625,0)" xlink:href="#br"/></g><path fill="#282c33" d="M51 0l535-762-487-728h354c99 152 240 357 306 516 68-159 211-365 312-516h346L934-771 1461 0h-362C993-164 838-379 756-546 674-378 513-163 404 0H51" id="bS"/><g id="Z"><use transform="matrix(0.011806640625,0,0,0.011806640625,0,0)" xlink:href="#bH"/><use transform="matrix(0.011806640625,0,0,0.011806640625,17.698154296875,0)" xlink:href="#bO"/><use transform="matrix(0.011806640625,0,0,0.011806640625,24.48697265625,0)" xlink:href="#bh"/><use transform="matrix(0.011806640625,0,0,0.011806640625,33.873251953125,0)" xlink:href="#bH"/><use transform="matrix(0.011806640625,0,0,0.011806640625,51.57140625,0)" xlink:href="#bS"/></g><path fill="#282c33" d="M789 20C394 20 94-260 94-744c0-487 300-766 695-766s695 279 695 766c0 485-300 764-695 764zm0-271c231 0 385-174 385-493 0-321-154-495-385-495s-385 175-385 495c0 319 154 493 385 493" id="bT"/><path fill="#282c33" d="M443 0L31-1118h319c90 293 199 572 268 885 66-313 175-593 264-885h315L784 0H443" id="bU"/><g id="aa"><use transform="matrix(0.011806640625,0,0,0.011806640625,0,0)" xlink:href="#bT"/><use transform="matrix(0.011806640625,0,0,0.011806640625,18.63087890625,0)" xlink:href="#bU"/><use transform="matrix(0.011806640625,0,0,0.011806640625,32.692587890625,0)" xlink:href="#be"/><use transform="matrix(0.011806640625,0,0,0.011806640625,47.096689453124995,0)" xlink:href="#aY"/><use transform="matrix(0.011806640625,0,0,0.011806640625,56.612841796875,0)" xlink:href="#bl"/><use transform="matrix(0.011806640625,0,0,0.011806640625,70.6509375,0)" xlink:href="#bL"/><use transform="matrix(0.011806640625,0,0,0.011806640625,77.203623046875,0)" xlink:href="#bL"/></g><path fill="#282c33" d="M659 20C335 20 103-159 99-418h307c5 112 113 185 254 185 147 0 250-83 250-204 0-123-105-209-278-209H494v-227h138c145 0 246-81 246-200 0-115-87-193-216-193-130 0-237 73-240 189H128c4-255 233-433 536-433 306 0 510 185 510 418 0 167-114 285-279 317v11c217 29 333 162 333 347 0 254-237 437-569 437" id="bV"/><g id="ab"><use transform="matrix(0.011806640625,0,0,0.011806640625,0,0)" xlink:href="#bn"/><use transform="matrix(0.011806640625,0,0,0.011806640625,9.1147265625,0)" xlink:href="#bo"/><use transform="matrix(0.011806640625,0,0,0.011806640625,34.203837890624996,0)" xlink:href="#aX"/><use transform="matrix(0.011806640625,0,0,0.011806640625,49.36356445312499,0)" xlink:href="#bp"/><use transform="matrix(0.011806640625,0,0,0.011806640625,60.544453125,0)" xlink:href="#bV"/><use transform="matrix(0.011806640625,0,0,0.011806640625,76.15283203125,0)" xlink:href="#br"/></g><g id="ac"><use transform="matrix(0.011806640625,0,0,0.011806640625,0,0)" xlink:href="#bb"/><use transform="matrix(0.011806640625,0,0,0.011806640625,17.887060546875,0)" xlink:href="#aY"/><use transform="matrix(0.011806640625,0,0,0.011806640625,27.143466796874993,0)" xlink:href="#be"/><use transform="matrix(0.011806640625,0,0,0.011806640625,41.783701171874995,0)" xlink:href="#bl"/><use transform="matrix(0.011806640625,0,0,0.011806640625,55.821796875,0)" xlink:href="#bg"/><use transform="matrix(0.011806640625,0,0,0.011806640625,64.67677734374999,0)" xlink:href="#bA"/><use transform="matrix(0.011806640625,0,0,0.011806640625,71.22946289062499,0)" xlink:href="#aZ"/><use transform="matrix(0.011806640625,0,0,0.011806640625,86.05860351562498,0)" xlink:href="#bc"/></g><path fill="#282c33" d="M684 20C381 20 94-164 94-710c0-501 235-800 601-800 293 0 496 188 526 433H921c-25-105-108-170-226-170-197 0-301 182-301 476h10c67-130 211-208 374-208 263 0 459 201 459 481 0 301-224 518-553 518zm-2-242c147 0 258-116 258-268 0-150-108-266-256-266-146 0-259 121-259 267 0 147 109 267 257 267" id="bW"/><g id="ad"><use transform="matrix(0.011806640625,0,0,0.011806640625,0,0)" xlink:href="#bn"/><use transform="matrix(0.011806640625,0,0,0.011806640625,9.1147265625,0)" xlink:href="#bo"/><use transform="matrix(0.011806640625,0,0,0.011806640625,34.203837890624996,0)" xlink:href="#aX"/><use transform="matrix(0.011806640625,0,0,0.011806640625,49.36356445312499,0)" xlink:href="#bp"/><use transform="matrix(0.011806640625,0,0,0.011806640625,60.674326171875,0)" xlink:href="#bW"/><use transform="matrix(0.011806640625,0,0,0.011806640625,76.37715820312499,0)" xlink:href="#br"/></g></defs></g></svg>